<mxfile host="app.diagrams.net" modified="2023-08-03T11:55:10.560Z" agent="Mozilla/5.0 (Windows NT 10.0; Win64; x64) AppleWebKit/537.36 (KHTML, like Gecko) Chrome/114.0.0.0 Safari/537.36 OPR/100.0.0.0" version="21.6.6" etag="FUPcLPxyGk5eooN3syEn" type="github" pages="2">
  <diagram id="aDA_4nTWPzpWctmf04pA" name="Page-1">
    <mxGraphModel dx="773" dy="516" grid="1" gridSize="10" guides="1" tooltips="1" connect="1" arrows="1" fold="1" page="1" pageScale="1" pageWidth="850" pageHeight="1500" math="0" shadow="0">
      <root>
        <mxCell id="0" />
        <mxCell id="1" parent="0" />
        <mxCell id="eUnGqf3GW7OmagP6Ht3n-60" style="edgeStyle=orthogonalEdgeStyle;rounded=0;orthogonalLoop=1;jettySize=auto;html=1;exitX=0.5;exitY=0.5;exitDx=0;exitDy=15;exitPerimeter=0;entryX=0.5;entryY=0;entryDx=0;entryDy=0;" edge="1" parent="1" source="eUnGqf3GW7OmagP6Ht3n-58" target="eUnGqf3GW7OmagP6Ht3n-59">
          <mxGeometry relative="1" as="geometry" />
        </mxCell>
        <mxCell id="eUnGqf3GW7OmagP6Ht3n-58" value="START" style="html=1;dashed=0;whiteSpace=wrap;shape=mxgraph.dfd.start" vertex="1" parent="1">
          <mxGeometry x="385" y="20" width="80" height="30" as="geometry" />
        </mxCell>
        <mxCell id="eUnGqf3GW7OmagP6Ht3n-62" style="edgeStyle=orthogonalEdgeStyle;rounded=0;orthogonalLoop=1;jettySize=auto;html=1;exitX=0.5;exitY=1;exitDx=0;exitDy=0;entryX=0.5;entryY=0;entryDx=0;entryDy=0;" edge="1" parent="1" source="eUnGqf3GW7OmagP6Ht3n-59" target="eUnGqf3GW7OmagP6Ht3n-61">
          <mxGeometry relative="1" as="geometry" />
        </mxCell>
        <mxCell id="eUnGqf3GW7OmagP6Ht3n-59" value="REGISTRATION" style="html=1;dashed=0;whiteSpace=wrap;" vertex="1" parent="1">
          <mxGeometry x="375" y="70" width="100" height="50" as="geometry" />
        </mxCell>
        <mxCell id="eUnGqf3GW7OmagP6Ht3n-63" style="edgeStyle=orthogonalEdgeStyle;rounded=0;orthogonalLoop=1;jettySize=auto;html=1;exitX=1;exitY=0.5;exitDx=0;exitDy=0;entryX=1;entryY=0.5;entryDx=0;entryDy=0;" edge="1" parent="1" source="eUnGqf3GW7OmagP6Ht3n-61" target="eUnGqf3GW7OmagP6Ht3n-59">
          <mxGeometry relative="1" as="geometry">
            <Array as="points">
              <mxPoint x="500" y="180" />
              <mxPoint x="500" y="95" />
            </Array>
          </mxGeometry>
        </mxCell>
        <mxCell id="eUnGqf3GW7OmagP6Ht3n-68" style="edgeStyle=orthogonalEdgeStyle;rounded=0;orthogonalLoop=1;jettySize=auto;html=1;exitX=0.5;exitY=1;exitDx=0;exitDy=0;entryX=0.5;entryY=0;entryDx=0;entryDy=0;" edge="1" parent="1" source="eUnGqf3GW7OmagP6Ht3n-61" target="eUnGqf3GW7OmagP6Ht3n-67">
          <mxGeometry relative="1" as="geometry" />
        </mxCell>
        <mxCell id="eUnGqf3GW7OmagP6Ht3n-61" value="IS VALID?" style="rhombus;whiteSpace=wrap;html=1;" vertex="1" parent="1">
          <mxGeometry x="385" y="140" width="80" height="80" as="geometry" />
        </mxCell>
        <mxCell id="eUnGqf3GW7OmagP6Ht3n-64" value="NO" style="text;html=1;align=center;verticalAlign=middle;resizable=0;points=[];autosize=1;strokeColor=none;fillColor=none;" vertex="1" parent="1">
          <mxGeometry x="450" y="148" width="40" height="30" as="geometry" />
        </mxCell>
        <mxCell id="eUnGqf3GW7OmagP6Ht3n-65" value="YES" style="text;html=1;align=center;verticalAlign=middle;resizable=0;points=[];autosize=1;strokeColor=none;fillColor=none;" vertex="1" parent="1">
          <mxGeometry x="425" y="210" width="50" height="30" as="geometry" />
        </mxCell>
        <mxCell id="eUnGqf3GW7OmagP6Ht3n-70" style="edgeStyle=orthogonalEdgeStyle;rounded=0;orthogonalLoop=1;jettySize=auto;html=1;exitX=0.5;exitY=1;exitDx=0;exitDy=0;entryX=0.5;entryY=0;entryDx=0;entryDy=0;" edge="1" parent="1" source="eUnGqf3GW7OmagP6Ht3n-67" target="eUnGqf3GW7OmagP6Ht3n-69">
          <mxGeometry relative="1" as="geometry" />
        </mxCell>
        <mxCell id="eUnGqf3GW7OmagP6Ht3n-67" value="LOGIN" style="html=1;dashed=0;whiteSpace=wrap;" vertex="1" parent="1">
          <mxGeometry x="375" y="240" width="100" height="50" as="geometry" />
        </mxCell>
        <mxCell id="eUnGqf3GW7OmagP6Ht3n-71" style="edgeStyle=orthogonalEdgeStyle;rounded=0;orthogonalLoop=1;jettySize=auto;html=1;exitX=1;exitY=0.5;exitDx=0;exitDy=0;entryX=1;entryY=0.5;entryDx=0;entryDy=0;" edge="1" parent="1" source="eUnGqf3GW7OmagP6Ht3n-69" target="eUnGqf3GW7OmagP6Ht3n-67">
          <mxGeometry relative="1" as="geometry">
            <Array as="points">
              <mxPoint x="500" y="350" />
              <mxPoint x="500" y="265" />
            </Array>
          </mxGeometry>
        </mxCell>
        <mxCell id="eUnGqf3GW7OmagP6Ht3n-73" style="edgeStyle=orthogonalEdgeStyle;rounded=0;orthogonalLoop=1;jettySize=auto;html=1;exitX=0.5;exitY=1;exitDx=0;exitDy=0;" edge="1" parent="1" source="eUnGqf3GW7OmagP6Ht3n-69" target="eUnGqf3GW7OmagP6Ht3n-72">
          <mxGeometry relative="1" as="geometry" />
        </mxCell>
        <mxCell id="eUnGqf3GW7OmagP6Ht3n-69" value="IS VALID?" style="rhombus;whiteSpace=wrap;html=1;" vertex="1" parent="1">
          <mxGeometry x="385" y="310" width="80" height="80" as="geometry" />
        </mxCell>
        <mxCell id="eUnGqf3GW7OmagP6Ht3n-75" style="edgeStyle=orthogonalEdgeStyle;rounded=0;orthogonalLoop=1;jettySize=auto;html=1;exitX=0;exitY=0.5;exitDx=0;exitDy=0;entryX=1;entryY=0.5;entryDx=0;entryDy=0;" edge="1" parent="1" source="eUnGqf3GW7OmagP6Ht3n-72" target="eUnGqf3GW7OmagP6Ht3n-74">
          <mxGeometry relative="1" as="geometry" />
        </mxCell>
        <mxCell id="eUnGqf3GW7OmagP6Ht3n-84" value="" style="edgeStyle=orthogonalEdgeStyle;rounded=0;orthogonalLoop=1;jettySize=auto;html=1;" edge="1" parent="1" source="eUnGqf3GW7OmagP6Ht3n-72" target="eUnGqf3GW7OmagP6Ht3n-83">
          <mxGeometry relative="1" as="geometry" />
        </mxCell>
        <mxCell id="eUnGqf3GW7OmagP6Ht3n-86" value="" style="edgeStyle=orthogonalEdgeStyle;rounded=0;orthogonalLoop=1;jettySize=auto;html=1;" edge="1" parent="1" source="eUnGqf3GW7OmagP6Ht3n-72" target="eUnGqf3GW7OmagP6Ht3n-85">
          <mxGeometry relative="1" as="geometry" />
        </mxCell>
        <mxCell id="eUnGqf3GW7OmagP6Ht3n-72" value="IS USER?" style="rhombus;whiteSpace=wrap;html=1;" vertex="1" parent="1">
          <mxGeometry x="385" y="410" width="80" height="80" as="geometry" />
        </mxCell>
        <mxCell id="eUnGqf3GW7OmagP6Ht3n-81" value="" style="edgeStyle=orthogonalEdgeStyle;rounded=0;orthogonalLoop=1;jettySize=auto;html=1;" edge="1" parent="1" source="eUnGqf3GW7OmagP6Ht3n-74" target="eUnGqf3GW7OmagP6Ht3n-80">
          <mxGeometry relative="1" as="geometry" />
        </mxCell>
        <mxCell id="eUnGqf3GW7OmagP6Ht3n-74" value="IS ADMIN?" style="rhombus;whiteSpace=wrap;html=1;" vertex="1" parent="1">
          <mxGeometry x="160" y="410" width="80" height="80" as="geometry" />
        </mxCell>
        <mxCell id="eUnGqf3GW7OmagP6Ht3n-77" value="NO" style="text;html=1;align=center;verticalAlign=middle;resizable=0;points=[];autosize=1;strokeColor=none;fillColor=none;" vertex="1" parent="1">
          <mxGeometry x="450" y="318" width="40" height="30" as="geometry" />
        </mxCell>
        <mxCell id="eUnGqf3GW7OmagP6Ht3n-78" value="YES" style="text;html=1;align=center;verticalAlign=middle;resizable=0;points=[];autosize=1;strokeColor=none;fillColor=none;" vertex="1" parent="1">
          <mxGeometry x="425" y="390" width="50" height="30" as="geometry" />
        </mxCell>
        <mxCell id="eUnGqf3GW7OmagP6Ht3n-79" value="NO" style="text;html=1;align=center;verticalAlign=middle;resizable=0;points=[];autosize=1;strokeColor=none;fillColor=none;" vertex="1" parent="1">
          <mxGeometry x="350" y="430" width="40" height="30" as="geometry" />
        </mxCell>
        <mxCell id="eUnGqf3GW7OmagP6Ht3n-80" value="ADMIN DASHBOARD" style="whiteSpace=wrap;html=1;" vertex="1" parent="1">
          <mxGeometry x="140" y="580" width="120" height="60" as="geometry" />
        </mxCell>
        <mxCell id="eUnGqf3GW7OmagP6Ht3n-82" value="YES" style="text;html=1;align=center;verticalAlign=middle;resizable=0;points=[];autosize=1;strokeColor=none;fillColor=none;" vertex="1" parent="1">
          <mxGeometry x="160" y="490" width="50" height="30" as="geometry" />
        </mxCell>
        <mxCell id="eUnGqf3GW7OmagP6Ht3n-83" value="GIFT STOCKIST" style="whiteSpace=wrap;html=1;" vertex="1" parent="1">
          <mxGeometry x="600" y="580" width="120" height="60" as="geometry" />
        </mxCell>
        <mxCell id="eUnGqf3GW7OmagP6Ht3n-90" value="" style="edgeStyle=orthogonalEdgeStyle;rounded=0;orthogonalLoop=1;jettySize=auto;html=1;" edge="1" parent="1" source="eUnGqf3GW7OmagP6Ht3n-85" target="eUnGqf3GW7OmagP6Ht3n-89">
          <mxGeometry relative="1" as="geometry" />
        </mxCell>
        <mxCell id="eUnGqf3GW7OmagP6Ht3n-85" value="USER DASHBOARD" style="whiteSpace=wrap;html=1;" vertex="1" parent="1">
          <mxGeometry x="365" y="580" width="120" height="60" as="geometry" />
        </mxCell>
        <mxCell id="eUnGqf3GW7OmagP6Ht3n-87" value="YES" style="text;html=1;align=center;verticalAlign=middle;resizable=0;points=[];autosize=1;strokeColor=none;fillColor=none;" vertex="1" parent="1">
          <mxGeometry x="415" y="478" width="50" height="30" as="geometry" />
        </mxCell>
        <mxCell id="eUnGqf3GW7OmagP6Ht3n-88" value="NO" style="text;html=1;align=center;verticalAlign=middle;resizable=0;points=[];autosize=1;strokeColor=none;fillColor=none;" vertex="1" parent="1">
          <mxGeometry x="450" y="428" width="40" height="30" as="geometry" />
        </mxCell>
        <mxCell id="eUnGqf3GW7OmagP6Ht3n-89" value="" style="whiteSpace=wrap;html=1;" vertex="1" parent="1">
          <mxGeometry x="365" y="670" width="120" height="60" as="geometry" />
        </mxCell>
      </root>
    </mxGraphModel>
  </diagram>
  <diagram id="7YD8A17QHSuhWitk_9Ok" name="Page-2">
    <mxGraphModel dx="734" dy="490" grid="1" gridSize="10" guides="1" tooltips="1" connect="1" arrows="1" fold="1" page="1" pageScale="1" pageWidth="850" pageHeight="1500" math="0" shadow="0">
      <root>
        <mxCell id="0" />
        <mxCell id="1" parent="0" />
        <mxCell id="QC-oa2HQfWLTARNliC0y-1" value="&lt;p style=&quot;margin:0px;margin-top:4px;text-align:center;&quot;&gt;&lt;b&gt;GIFT HAMPER&lt;/b&gt;&lt;/p&gt;&lt;hr size=&quot;1&quot;&gt;&lt;div style=&quot;height:2px;&quot;&gt;&lt;/div&gt;" style="verticalAlign=top;align=left;overflow=fill;fontSize=12;fontFamily=Helvetica;html=1;" parent="1" vertex="1">
          <mxGeometry x="355" y="100" width="140" height="400" as="geometry" />
        </mxCell>
        <mxCell id="Kq61B8NgNPR4z9Mc2dlc-1" value="Actor" style="shape=umlActor;verticalLabelPosition=bottom;verticalAlign=top;html=1;outlineConnect=0;" vertex="1" parent="1">
          <mxGeometry x="240" y="270" width="30" height="60" as="geometry" />
        </mxCell>
      </root>
    </mxGraphModel>
  </diagram>
</mxfile>
